<svg height="48pt" viewBox="0 0 48 48" width="48pt" xmlns="http://www.w3.org/2000/svg" xmlns:xlink="http://www.w3.org/1999/xlink"><linearGradient id="a"><stop offset="0" stop-color="#18d0ad"/><stop offset=".904496403" stop-color="#07c3f2"/></linearGradient><linearGradient id="b" gradientTransform="matrix(22.51 0 0 23.5 .352 12.25)" gradientUnits="userSpaceOnUse" x1="0" x2="2.293075" xlink:href="#a" y1=".5" y2=".529404"/><linearGradient id="c" gradientTransform="matrix(29.006 0 0 23.5 18.642 12.25)" gradientUnits="userSpaceOnUse" x1="-.619793" x2="1.065442" xlink:href="#a" y1=".476064" y2=".502527"/><g fill-rule="evenodd"><path d="m18.972 28.56.97-1.46 2.92 1.94-.97 1.46c-2.18 3.27-5.86 5.25-9.79 5.25-3.11 0-6.11-1.24-8.31-3.44s-3.44-5.19-3.44-8.31 1.24-6.11 3.44-8.31 5.19-3.44 8.31-3.44c2.63 0 5.18.88 7.25 2.51.762.596.896 1.696.3 2.455-.596.759-1.698.891-2.46.295-1.45-1.14-3.24-1.76-5.09-1.76-2.19 0-4.29.87-5.83 2.42-1.55 1.54-2.42 3.64-2.42 5.83s.87 4.29 2.42 5.83c1.54 1.55 3.64 2.42 5.83 2.42 2.76 0 5.35-1.39 6.87-3.69zm-10.153-5.756h5.741c.529 0 .957.429.957.957v.478c0 .528-.428.957-.957.957h-5.741c-.528 0-.957-.429-.957-.957v-.478c0-.528.429-.957.957-.957z" fill="url(#b)"/><path d="m35.374 22.804h-1.674c-.528 0-.957.429-.957.957v.478c0 .528.429.957.957.957h1.674v1.675c0 .528.429.957.957.957h.479c.528 0 .957-.429.957-.957v-1.675h1.675c.528 0 .957-.429.957-.957v-.478c0-.528-.429-.957-.957-.957h-1.675v-1.675c0-.528-.429-.957-.957-.957h-.479c-.528 0-.957.429-.957.957zm-9.117 1.124 3.292 5.082c1.553 2.029 3.976 3.24 6.553 3.24 2.38 0 4.65-1.03 6.22-2.83.635-.729 1.742-.805 2.47-.17.729.635.805 1.741.17 2.47-2.23 2.56-5.47 4.03-8.86 4.03-3.744 0-7.25-1.788-9.459-4.781l-.001.001-.014-.022c-.133-.182-.262-.368-.386-.558l-.95-1.46.02-.013-1.174-1.811-2.576 3.864-1.46-.97-1.46-.97 7.14-10.71.48-.73c.098-.15.198-.298.302-.443l.078-.117.005.003c2.199-2.996 5.712-4.783 9.455-4.783 2.7 0 5.33.93 7.42 2.64 2.1 1.7 3.54 4.08 4.09 6.73.193.949-.418 1.877-1.365 2.07-.946.193-1.872-.416-2.065-1.36-.38-1.86-1.4-3.53-2.87-4.73s-3.31-1.85-5.21-1.85c-2.593 0-5.022 1.218-6.573 3.269z" fill="url(#c)"/></g></svg>