<svg width="201" height="173" viewBox="0 0 201 173" fill="none" xmlns="http://www.w3.org/2000/svg">
<path d="M86.0044 143.517C83.7196 146.781 81.3532 150.127 78.9052 153.554C76.6204 156.981 74.6621 160.082 73.0301 162.856C71.3981 165.631 70.3373 167.916 69.8477 169.711C69.3581 171.343 69.6845 172.159 70.8269 172.159H59.3214C61.2798 170.527 64.3805 167.1 68.6237 161.877C73.0301 156.492 77.7628 150.29 82.822 143.273L119.787 90.3962L81.598 31.3998C76.702 23.8927 71.8877 17.2831 67.1549 11.5712C62.5853 5.69602 58.995 2.10564 56.3838 0.800049H88.2076C86.5756 0.800049 86.086 1.77924 86.7388 3.73763C87.3916 5.69601 88.6156 8.14399 90.4107 11.0816C92.2059 14.0192 94.3275 17.2015 96.7755 20.6287C99.2235 24.0559 101.345 27.2383 103.14 30.1758L132.026 74.4843L163.361 29.4414C165.645 26.1775 167.93 22.8319 170.215 19.4047C172.663 15.9775 174.703 12.8768 176.335 10.1024C177.967 7.328 179.028 5.12482 179.517 3.49284C180.17 1.69765 179.844 0.800049 178.538 0.800049H190.044C188.085 2.43204 184.903 5.94081 180.496 11.3264C176.09 16.5487 171.439 22.6687 166.543 29.6862L133.495 76.9323L181.476 151.106C185.066 156.492 188.575 161.061 192.002 164.815C195.429 168.568 198.122 171.016 200.08 172.159H167.767C169.073 172.159 169.317 171.016 168.501 168.732C167.685 166.447 166.298 163.672 164.34 160.408C162.381 156.981 160.097 153.309 157.485 149.393C155.037 145.313 152.671 141.559 150.386 138.132L121.255 92.8442L86.0044 143.517Z" fill="url(#paint0_linear_4150_9)"/>
<path d="M27.0079 109.001C27.0079 114.876 27.0079 121.486 27.0079 128.83C27.1711 136.173 27.4159 143.109 27.7423 149.637C28.2319 156.002 28.9663 161.388 29.9455 165.794C30.9246 170.037 32.3934 172.159 34.3518 172.159H0.0800781C2.03846 172.159 3.50725 170.037 4.48645 165.794C5.46564 161.551 6.11843 156.328 6.44483 150.127C6.93443 143.762 7.17923 136.989 7.17923 129.809C7.34242 122.465 7.42402 115.855 7.42402 109.98V62.9788C7.42402 57.1036 7.34242 50.5757 7.17923 43.3949C7.17923 36.051 6.93443 29.2782 6.44483 23.0767C6.11843 16.7119 5.46564 11.408 4.48645 7.16481C3.50725 2.92163 2.03846 0.800049 0.0800781 0.800049H34.3518C32.3934 0.800049 30.9246 3.00323 29.9455 7.4096C28.9663 11.6528 28.2319 17.0383 27.7423 23.5663C27.4159 29.931 27.1711 36.7854 27.0079 44.1293C27.0079 51.4733 27.0079 58.0828 27.0079 63.958V109.001Z" fill="url(#paint1_linear_4150_9)"/>
<defs>
<linearGradient id="paint0_linear_4150_9" x1="176.282" y1="243" x2="-88.7632" y2="53.7399" gradientUnits="userSpaceOnUse">
<stop stop-color="#360033"/>
<stop offset="1" stop-color="#02E9FF"/>
</linearGradient>
<linearGradient id="paint1_linear_4150_9" x1="176.282" y1="243" x2="-88.7635" y2="53.7399" gradientUnits="userSpaceOnUse">
<stop stop-color="#360033"/>
<stop offset="1" stop-color="#02E9FF"/>
</linearGradient>
</defs>
</svg>
