<svg width="217" height="79" viewBox="0 0 217 79" fill="none" xmlns="http://www.w3.org/2000/svg">
<path d="M206.242 8.875C206.909 6.875 206.534 5.20833 205.117 3.875C204.034 3.29167 202.951 2.875 201.867 2.625H214.367C213.034 3.04167 211.867 3.58333 210.867 4.25C209.201 5.33333 207.659 6.875 206.242 8.875ZM179.867 45C179.951 44.75 180.117 44.7083 180.367 44.875C180.617 45.0417 180.659 45.2083 180.492 45.375L178.367 48.5H181.117C181.367 48.5 181.492 48.625 181.492 48.875C181.492 49.0417 181.451 49.125 181.367 49.125L168.992 67.875C168.826 68.2083 168.659 68.25 168.492 68C168.242 67.8333 168.201 67.6667 168.367 67.5L180.492 49.25H177.742C177.659 49.25 177.576 49.25 177.492 49.25C177.242 49.0833 177.201 48.9167 177.367 48.75L179.867 45ZM166.867 12.625L181.242 35.375C181.326 35.625 181.534 35.6667 181.867 35.5C182.034 35.5 182.034 35.3333 181.867 35L167.492 12.25C167.242 12.0833 167.076 12.0417 166.992 12.125C166.659 12.2917 166.617 12.4583 166.867 12.625ZM194.867 56.875C194.617 56.7083 194.659 56.5417 194.992 56.375C195.076 56.2917 195.242 56.3333 195.492 56.5L196.367 58C196.534 58.25 196.492 58.4167 196.242 58.5C196.076 58.6667 195.909 58.625 195.742 58.375L194.867 56.875ZM182.867 47.25C182.617 47.5 182.451 47.5417 182.367 47.375C182.117 47.2083 182.076 47.0417 182.242 46.875L185.492 42C185.659 41.8333 185.826 41.7917 185.992 41.875C185.992 41.875 185.992 41.9167 185.992 42C186.076 42 186.117 42 186.117 42L194.867 55.5C194.951 55.6667 194.909 55.8333 194.742 56C194.492 56.25 194.326 56.2083 194.242 55.875L185.742 42.875L182.867 47.25ZM182.492 37.25C182.242 37.0833 182.284 36.9167 182.617 36.75C182.701 36.6667 182.867 36.7083 183.117 36.875L184.492 39C184.492 39.0833 184.492 39.2083 184.492 39.375C184.492 39.4583 184.492 39.5 184.492 39.5L183.367 41C183.201 41.3333 183.034 41.375 182.867 41.125C182.701 40.9583 182.659 40.7917 182.742 40.625L183.742 39.25L182.492 37.25ZM196.367 29.375C196.367 29.125 196.534 29.0833 196.867 29.25C197.034 29.4167 197.034 29.5833 196.867 29.75L192.867 35.875L198.867 45.375C198.951 45.5417 198.909 45.7083 198.742 45.875C198.576 45.9583 198.409 45.9167 198.242 45.75L192.117 36C191.951 35.9167 191.951 35.7917 192.117 35.625L196.367 29.375ZM195.867 26.5L189.867 35.5C189.701 35.6667 189.701 35.7917 189.867 35.875L198.742 50C198.742 50.0833 198.867 50.125 199.117 50.125C199.367 50.0417 199.409 49.875 199.242 49.625L190.492 35.75L196.492 26.875C196.659 26.7083 196.617 26.5417 196.367 26.375C196.117 26.2083 195.951 26.25 195.867 26.5ZM197.992 19.375C197.826 19.7083 197.659 19.75 197.492 19.5C197.242 19.3333 197.201 19.1667 197.367 19L199.242 16.25C199.326 16 199.492 15.9583 199.742 16.125C199.992 16.2917 200.034 16.4583 199.867 16.625L197.992 19.375ZM183.867 23.875C183.784 23.7083 183.826 23.5417 183.992 23.375C184.159 23.2083 184.326 23.25 184.492 23.5L188.367 29.5L193.742 21.75C193.742 21.5 193.909 21.4583 194.242 21.625C194.409 21.7917 194.409 21.9583 194.242 22.125L188.742 30.375C188.742 30.4583 188.701 30.5 188.617 30.5C188.367 30.75 188.201 30.7083 188.117 30.375L183.867 23.875ZM181.742 23.25C181.659 23.0833 181.701 22.9167 181.867 22.75C182.034 22.5833 182.201 22.625 182.367 22.875L188.492 32.25L196.492 20.25C196.576 20.1667 196.784 20.125 197.117 20.125C197.284 20.2917 197.284 20.4583 197.117 20.625L188.742 33.125C188.742 33.125 188.701 33.1667 188.617 33.25C188.367 33.25 188.201 33.2083 188.117 33.125L181.742 23.25ZM158.117 76C159.451 75.6667 160.701 75.0417 161.867 74.125C162.951 73.375 164.367 71.8333 166.117 69.5C165.367 71.6667 165.867 73.375 167.617 74.625C168.367 75.2917 169.492 75.75 170.992 76H158.117ZM185.367 40.5L185.617 40.25C186.034 39.5833 186.034 38.9583 185.617 38.375L166.242 7.75C165.242 5.91667 163.951 4.54167 162.367 3.625C161.534 3.20833 160.617 2.875 159.617 2.625H175.242C174.409 2.79167 173.784 2.95833 173.367 3.125C170.034 4.54167 169.284 6.54167 171.117 9.125L186.992 33.875C187.492 34.375 187.992 34.625 188.492 34.625C188.659 34.625 188.784 34.5833 188.867 34.5L188.742 34.75C188.326 35.4167 188.326 36.0417 188.742 36.625L209.492 69.75C211.159 72.4167 212.951 74.25 214.867 75.25C215.034 75.4167 215.701 75.6667 216.867 76H201.492C201.992 75.9167 202.576 75.7083 203.242 75.375C204.242 75.0417 204.992 74.4167 205.492 73.5C206.076 72.0833 205.826 70.375 204.742 68.375L187.242 41.25C186.826 40.75 186.367 40.5 185.867 40.5C185.701 40.5 185.576 40.5 185.492 40.5C185.409 40.5 185.367 40.5 185.367 40.5Z" fill="white"/>
<path d="M148.742 0.5C148.742 0.5 148.742 0.541667 148.742 0.625C148.826 0.625 148.867 0.625 148.867 0.625C148.867 0.625 148.909 0.625 148.992 0.625C149.076 0.541667 149.117 0.5 149.117 0.5H156.117C156.367 0.5 156.492 0.625 156.492 0.875V3.75C156.492 4 156.367 4.125 156.117 4.125C155.867 4.125 155.742 4 155.742 3.75V1.25H149.117C149.117 1.25 149.076 1.25 148.992 1.25C148.909 1.25 148.867 1.20833 148.867 1.125C148.867 1.20833 148.826 1.25 148.742 1.25H146.867C146.617 1.25 146.492 1.125 146.492 0.875C146.492 0.625 146.617 0.5 146.867 0.5H148.742ZM131.992 2.625H149.242C147.826 2.95833 146.701 3.375 145.867 3.875C143.617 5.29167 142.492 7.75 142.492 11.25V68.625C142.492 71.625 143.659 73.7917 145.992 75.125C146.826 75.7083 147.992 76.125 149.492 76.375H131.742C133.159 76.125 134.326 75.7083 135.242 75.125C137.659 73.875 138.867 71.7083 138.867 68.625V11.25C138.867 7.66667 137.659 5.20833 135.242 3.875C134.409 3.375 133.326 2.95833 131.992 2.625ZM134.867 15.375C134.867 15.125 134.992 15 135.242 15C135.492 15 135.617 15.125 135.617 15.375V40C135.617 40.25 135.492 40.375 135.242 40.375C134.992 40.375 134.867 40.25 134.867 40V15.375ZM123.992 77.25C123.992 77.1667 123.992 77.0833 123.992 77C123.992 77 123.992 76.9583 123.992 76.875V74.125C123.992 73.875 124.117 73.75 124.367 73.75H126.867C127.117 73.75 127.242 73.875 127.242 74.125C127.242 74.375 127.117 74.5 126.867 74.5H124.742V76.875C124.742 76.875 124.701 76.875 124.617 76.875C124.617 76.9583 124.617 77 124.617 77C124.701 77.0833 124.742 77.1667 124.742 77.25V77.75C124.742 78 124.617 78.125 124.367 78.125C124.117 78.125 123.992 78 123.992 77.75V77.25ZM122.992 3.125C122.992 2.875 123.117 2.75 123.367 2.75C123.617 2.75 123.742 2.875 123.742 3.125V5.25C127.909 5.16667 130.992 5.75 132.992 7C134.742 8.33333 135.617 10.3333 135.617 13C135.617 13.25 135.492 13.375 135.242 13.375C134.992 13.375 134.867 13.25 134.867 13C134.867 10.5833 134.076 8.79167 132.492 7.625C130.576 6.375 127.534 5.83333 123.367 6C123.117 6 122.992 5.875 122.992 5.625V3.125ZM152.617 75.625C152.367 75.625 152.242 75.5 152.242 75.25C152.242 75 152.367 74.875 152.617 74.875H153.492C153.742 74.875 153.867 75 153.867 75.25C153.867 75.5 153.742 75.625 153.492 75.625H152.617ZM126.117 78.375C126.117 78.625 125.992 78.75 125.742 78.75C125.492 78.75 125.367 78.625 125.367 78.375V75.625C125.367 75.375 125.492 75.25 125.742 75.25H128.242C128.492 75.25 128.617 75.375 128.617 75.625C128.617 75.875 128.492 76 128.242 76H126.117V78.375ZM143.867 59.875C143.867 59.625 143.992 59.5 144.242 59.5C144.492 59.5 144.617 59.625 144.617 59.875C144.617 61.625 144.576 62.875 144.492 63.625C144.409 66.875 144.617 69.4583 145.117 71.375C145.701 73.2917 147.826 74.4167 151.492 74.75C151.742 74.75 151.867 74.875 151.867 75.125C151.867 75.375 151.742 75.5 151.492 75.5C147.492 75.0833 145.159 73.875 144.492 71.875C143.909 69.7917 143.701 67.0417 143.867 63.625C143.867 63.125 143.867 62.5833 143.867 62C143.867 61.3333 143.867 60.625 143.867 59.875ZM136.742 12.25C136.742 12 136.867 11.875 137.117 11.875C137.367 11.875 137.492 12 137.492 12.25V13C137.492 13.25 137.367 13.375 137.117 13.375C136.867 13.375 136.742 13.25 136.742 13V12.25ZM124.867 1.25C124.867 1 124.992 0.875 125.242 0.875C125.492 0.875 125.617 1 125.617 1.25V3.375C129.867 3.29167 132.909 3.875 134.742 5.125C136.576 6.45833 137.492 8.5 137.492 11.25C137.492 11.5 137.367 11.625 137.117 11.625C136.867 11.625 136.742 11.5 136.742 11.25C136.742 8.75 135.951 6.91667 134.367 5.75C132.451 4.5 129.409 3.95833 125.242 4.125C124.992 4.125 124.867 4 124.867 3.75V1.25Z" fill="white"/>
<path d="M90.6063 3C125.432 3 126.027 64.6423 82.4703 76L82.3711 75.6117C101.024 69.2048 104.894 44.8391 106.58 35.2287C103.604 47.266 95.3688 52.6051 87.1336 52.6051C76.6164 52.6051 66 43.9654 66 29.5984C66 12.3191 78.0055 3 90.6063 3ZM74.632 29.113C74.632 43.383 81.875 49.984 89.5149 49.984C97.75 49.984 106.481 42.121 106.481 27.754C106.481 12.7074 98.0477 4.06782 89.9117 4.06782C82.1727 4.06782 74.632 11.7367 74.632 29.113Z" fill="white"/>
<path d="M3.75781 76C4.84115 75.6667 5.71615 75.0833 6.38281 74.25C7.63281 72.8333 8.25781 70.7917 8.25781 68.125V10.375C8.25781 7.45833 7.59115 5.33333 6.25781 4C5.67448 3.5 4.96615 3.08333 4.13281 2.75H16.0078C15.0078 3.08333 14.2578 3.5 13.7578 4C12.4245 5.33333 11.7578 7.45833 11.7578 10.375V68.125C11.7578 70.7917 12.4661 72.8333 13.8828 74.25C14.6328 75 15.6328 75.5833 16.8828 76H3.75781ZM36.2578 76C39.4245 75.3333 42.3828 73.875 45.1328 71.625C47.5495 69.7083 49.8828 67.125 52.1328 63.875L47.1328 76H36.2578ZM6.25781 69.75C6.25781 69.5 6.38281 69.375 6.63281 69.375C6.88281 69.5417 6.96615 69.6667 6.88281 69.75C6.63281 71.75 5.96615 73.125 4.88281 73.875C3.71615 75.0417 2.38281 75.5 0.882812 75.25V77.125H11.6328C11.7995 77.125 11.8828 77.25 11.8828 77.5C11.8828 77.6667 11.7995 77.75 11.6328 77.75H0.632812C0.382812 77.75 0.257812 77.6667 0.257812 77.5V75V74.875C0.257812 74.875 0.257812 74.8333 0.257812 74.75C0.341146 74.75 0.382812 74.75 0.382812 74.75C0.382812 74.6667 0.382812 74.625 0.382812 74.625C0.466146 74.625 0.549479 74.625 0.632812 74.625C1.96615 74.875 3.25781 74.4583 4.50781 73.375C5.42448 72.625 6.00781 71.4167 6.25781 69.75ZM6.38281 62.75C6.38281 62.5 6.50781 62.375 6.75781 62.375C6.92448 62.375 7.00781 62.5 7.00781 62.75V68.125C7.00781 68.2917 6.92448 68.375 6.75781 68.375C6.50781 68.375 6.38281 68.2917 6.38281 68.125V62.75ZM6.38281 23.375C6.38281 23.2083 6.50781 23.125 6.75781 23.125C6.92448 23.125 7.00781 23.2083 7.00781 23.375V40.375C7.00781 40.625 6.92448 40.75 6.75781 40.75C6.50781 40.75 6.38281 40.625 6.38281 40.375V23.375ZM13.0078 11.875C13.0078 11.625 13.1328 11.5 13.3828 11.5C13.6328 11.5 13.7578 11.625 13.7578 11.875V16.75C13.7578 17 13.6328 17.125 13.3828 17.125C13.1328 17.125 13.0078 17 13.0078 16.75V11.875ZM19.2578 4.625C19.5078 4.625 19.6328 4.70833 19.6328 4.875C19.6328 5.125 19.5078 5.25 19.2578 5.25C17.6745 5.25 16.6328 5.41667 16.1328 5.75C15.2995 6.33333 14.8828 7.5 14.8828 9.25C14.8828 9.5 14.7578 9.625 14.5078 9.625C14.3411 9.625 14.2578 9.5 14.2578 9.25C14.2578 7.25 14.7578 5.875 15.7578 5.125C16.4245 4.79167 17.5911 4.625 19.2578 4.625ZM20.3828 3.5C20.6328 3.5 20.7578 3.58333 20.7578 3.75C20.7578 4 20.6328 4.125 20.3828 4.125C18.0495 4.125 16.4661 4.375 15.6328 4.875C14.3828 5.875 13.7578 7.70833 13.7578 10.375C13.7578 10.625 13.6328 10.75 13.3828 10.75C13.1328 10.75 13.0078 10.625 13.0078 10.375C13.0078 7.375 13.7578 5.375 15.2578 4.375C16.1745 3.79167 17.8828 3.5 20.3828 3.5ZM10.3828 1.5C10.1328 1.5 10.0078 1.375 10.0078 1.125C10.0078 0.958333 10.1328 0.875 10.3828 0.875H11.5078C11.7578 0.875 11.8828 0.958333 11.8828 1.125C11.8828 1.375 11.7578 1.5 11.5078 1.5H10.3828ZM0.882812 2.875C0.882812 3.04167 0.799479 3.125 0.632812 3.125C0.382812 3.125 0.257812 3.04167 0.257812 2.875V1.125C0.257812 0.958333 0.382812 0.875 0.632812 0.875H8.38281C8.63281 0.875 8.75781 0.958333 8.75781 1.125C8.75781 1.375 8.63281 1.5 8.38281 1.5H0.882812V2.875ZM56.0078 58.75C56.1745 58.9167 56.2161 59.0833 56.1328 59.25C56.1328 59.3333 56.0078 59.375 55.7578 59.375L54.1328 58.5L51.3828 62.875C51.2161 63.0417 51.0495 63.0417 50.8828 62.875C50.5495 62.875 50.5078 62.75 50.7578 62.5L53.7578 57.875V57.75C53.7578 57.6667 53.8828 57.625 54.1328 57.625L56.0078 58.75ZM45.7578 77.75C45.5078 77.75 45.3828 77.6667 45.3828 77.5C45.3828 77.25 45.5078 77.125 45.7578 77.125H48.0078L53.2578 64.625C53.2578 64.4583 53.3828 64.375 53.6328 64.375C53.7995 64.4583 53.8828 64.625 53.8828 64.875L48.5078 77.625C48.5078 77.7083 48.4245 77.75 48.2578 77.75H45.7578ZM30.5078 75.25C30.2578 75.25 30.1328 75.1667 30.1328 75C30.1328 74.75 30.2578 74.625 30.5078 74.625H33.0078C33.2578 74.625 33.3828 74.75 33.3828 75C33.3828 75.1667 33.2578 75.25 33.0078 75.25H30.5078ZM24.7578 75.125C24.5078 75.125 24.3828 75 24.3828 74.75C24.3828 74.5833 24.5078 74.5 24.7578 74.5H28.6328C28.8828 74.5 29.0078 74.5833 29.0078 74.75V77.125H41.7578C41.9245 77.125 42.0078 77.25 42.0078 77.5C42.0078 77.6667 41.9245 77.75 41.7578 77.75H28.6328C28.3828 77.75 28.2578 77.6667 28.2578 77.5V75.125H24.7578Z" fill="white"/>
</svg>
