<svg width="2000" height="2000" viewBox="0 0 2000 2000" fill="none" xmlns="http://www.w3.org/2000/svg">
<g clip-path="url(#clip0_45_357)">
<path d="M1000 2000C961.883 1748.41 844.253 1515.61 664.32 1335.68C484.386 1155.75 251.593 1038.12 0 1000C251.593 961.883 484.386 844.253 664.32 664.32C844.253 484.386 961.883 251.593 1000 0C1038.13 251.588 1155.76 484.374 1335.69 664.306C1515.63 844.237 1748.41 961.871 2000 1000C1748.41 1038.13 1515.63 1155.76 1335.69 1335.69C1155.76 1515.63 1038.13 1748.41 1000 2000Z" fill="url(#paint0_linear_45_357)"/>
<path d="M1000 2000C961.883 1748.41 844.253 1515.61 664.32 1335.68C484.386 1155.75 251.593 1038.12 0 1000C251.593 961.883 484.386 844.253 664.32 664.32C844.253 484.386 961.883 251.593 1000 0C1038.13 251.588 1155.76 484.374 1335.69 664.306C1515.63 844.237 1748.41 961.871 2000 1000C1748.41 1038.13 1515.63 1155.76 1335.69 1335.69C1155.76 1515.63 1038.13 1748.41 1000 2000Z" fill="url(#paint1_linear_45_357)"/>
</g>
<defs>
<linearGradient id="paint0_linear_45_357" x1="166.5" y1="1018.5" x2="1123" y2="541.5" gradientUnits="userSpaceOnUse">
<stop stop-color="#E2B4EF"/>
<stop offset="0.636515" stop-color="#49B2FF"/>
<stop offset="0.879115" stop-color="#E5A3F8"/>
<stop offset="1" stop-color="#FFB4D8"/>
</linearGradient>
<linearGradient id="paint1_linear_45_357" x1="1099" y1="2000" x2="818.5" y2="1047" gradientUnits="userSpaceOnUse">
<stop stop-color="#028BF1"/>
<stop offset="0.668269" stop-color="#008CFF"/>
<stop offset="0.995192" stop-color="#4AA0F8" stop-opacity="0"/>
</linearGradient>
<clipPath id="clip0_45_357">
<rect width="2000" height="2000" fill="white"/>
</clipPath>
</defs>
</svg>
