<?xml version="1.0" encoding="UTF-8"?>
<svg id="Layer_2" data-name="Layer 2" xmlns="http://www.w3.org/2000/svg" xmlns:xlink="http://www.w3.org/1999/xlink" viewBox="0 0 220.01 122.98">
  <defs>
    <style>
      .cls-1 {
        fill: #fff;
      }

      .cls-2 {
        fill: url(#linear-gradient);
      }
    </style>
    <linearGradient id="linear-gradient" x1="1.95" y1="113.28" x2="212.01" y2="12.6" gradientUnits="userSpaceOnUse">
      <stop offset="0" stop-color="#92c5fc"/>
      <stop offset=".79" stop-color="#cbc3fc"/>
      <stop offset="1" stop-color="#dbc3fc"/>
    </linearGradient>
  </defs>
  <g id="Layer_3" data-name="Layer 3">
    <g>
      <rect class="cls-2" width="220.01" height="122.98"/>
      <g>
        <path class="cls-1" d="M123.04,106.68l-.25,4.8h-19.68V11.85h20.91v36.65c4.8-3.44,10.82-5.41,17.34-5.41,18.57,0,33.46,15.5,33.46,34.81s-14.76,34.81-33.46,34.81c-7.01,0-13.41-2.21-18.33-6.03ZM153.92,77.9c0-8.86-6.64-15.62-15.25-15.62s-15.25,6.89-15.25,15.62,6.77,15.74,15.25,15.74,15.25-6.89,15.25-15.74Z"/>
        <path class="cls-1" d="M186.02,26.86c0-6.4,5.29-11.68,11.81-11.68s11.81,5.17,11.81,11.68-5.29,11.69-11.81,11.69-11.81-5.29-11.81-11.69ZM187.49,44.57h20.66v66.91h-20.66V44.57Z"/>
        <g>
          <path class="cls-1" d="M82.44,32.76L11.85,98.59v12.89h8.23L89.43,46.81c-1.58-5.09-3.97-9.81-6.99-14.05Z"/>
          <path class="cls-1" d="M11.85,78.09l60.16-56.1c-4.21-3.2-8.95-5.74-14.06-7.48L11.85,57.5v20.59Z"/>
          <path class="cls-1" d="M42.06,111.48c26.22-.1,47.59-20.37,49.46-46.13l-49.46,46.13Z"/>
          <polygon class="cls-1" points="38.83 11.85 11.85 11.85 11.85 37.01 38.83 11.85"/>
        </g>
      </g>
    </g>
  </g>
</svg>