<svg xmlns="http://www.w3.org/2000/svg" width="604.257" height="587.382" viewBox="0 0 604.257 587.382">
  <path id="Path_1" data-name="Path 1" d="M353.234-232.452l-63.368-52.754-.353-82.971,212.4,176.506,63.648,47.728.072,88Zm-69.357-7.47q0-106.2,106.2-106.2H453.8q106.2,0,106.2,106.2V-176.2Q560-70,453.8-70H390.078q-106.2,0-106.2-106.2Zm106.2-42.48q-42.48,0-42.48,42.48V-176.2q0,42.48,42.48,42.48H453.8q42.48,0,42.48-42.48v-63.721q0-42.48-42.48-42.48ZM469.8-207.123,299.3,87.629,129.8-206.123H203.3L299.3-39.812l97.006-167.311ZM734.062-206H660.57L564.564-372.311,468.559-206H395.067l169.5-293.752Z" transform="translate(-129.805 499.752)"/>
</svg>
